<svg xmlns="http://www.w3.org/2000/svg" version="1.1" xmlns:xlink="http://www.w3.org/1999/xlink" xmlns:svgjs="http://svgjs.com/svgjs" width="1440" height="560" preserveAspectRatio="none" viewBox="0 0 1440 560"><g clip-path="url(&quot;#SvgjsClipPath1007&quot;)" fill="none"><rect width="1440" height="560" x="0" y="0" fill="rgba(14, 42, 71, 1)"></rect><circle r="93.335" cx="1.9" cy="38.08" stroke="#3a5283" stroke-opacity="0.25" stroke-width="2"></circle><circle r="93.335" cx="307.2" cy="458.12" stroke="#3a5283" stroke-opacity="0.25" stroke-width="2"></circle><circle r="93.335" cx="754.6" cy="813.98" stroke="#3a5283" stroke-opacity="0.25" stroke-width="2"></circle><circle r="54.485" cx="687.7" cy="22.28" stroke="#3a5283" stroke-opacity="0.25" stroke-width="2"></circle><circle r="119.69" cx="118.16" cy="94.39" stroke="#3a5283" stroke-opacity="0.25" stroke-width="2"></circle><circle r="154.53" cx="500.66" cy="63.38" stroke="#3a5283" stroke-opacity="0.25" stroke-width="2"></circle><circle r="48.755" cx="211.28" cy="339.85" stroke="#3a5283" stroke-opacity="0.25" stroke-width="2"></circle><circle r="150.96" cx="513.83" cy="260.42" stroke="#3a5283" stroke-opacity="0.25" stroke-width="2"></circle><circle r="125.53" cx="742.1" cy="144.29" stroke="#3a5283" stroke-opacity="0.25" stroke-width="2"></circle><circle r="68.625" cx="347.54" cy="376.57" stroke="#3a5283" stroke-opacity="0.25" stroke-width="2"></circle><circle r="95.695" cx="1367.57" cy="109.86" stroke="#3a5283" stroke-opacity="0.25" stroke-width="2"></circle><circle r="122.165" cx="1422.37" cy="405.7" stroke="#3a5283" stroke-opacity="0.25" stroke-width="2"></circle><circle r="158.275" cx="748.89" cy="111.11" stroke="#3a5283" stroke-opacity="0.25" stroke-width="2"></circle><circle r="177.78" cx="509.17" cy="346.55" stroke="#3a5283" stroke-opacity="0.25" stroke-width="2"></circle><circle r="141.54" cx="1214.42" cy="323.84" stroke="#3a5283" stroke-opacity="0.25" stroke-width="2"></circle><circle r="139.39" cx="1063.39" cy="335.52" stroke="#3a5283" stroke-opacity="0.25" stroke-width="2"></circle><circle r="115.34" cx="832.64" cy="34.28" stroke="#3a5283" stroke-opacity="0.25" stroke-width="2"></circle><circle r="125.735" cx="1338.52" cy="542.27" stroke="#3a5283" stroke-opacity="0.25" stroke-width="2"></circle><circle r="108.285" cx="82.06" cy="261.97" stroke="#3a5283" stroke-opacity="0.25" stroke-width="2"></circle><circle r="171.82" cx="318.74" cy="143.88" stroke="#3a5283" stroke-opacity="0.25" stroke-width="2"></circle><circle r="67.415" cx="371.57" cy="349.6" stroke="#3a5283" stroke-opacity="0.25" stroke-width="2"></circle><circle r="167.1" cx="776.57" cy="505.31" stroke="#3a5283" stroke-opacity="0.25" stroke-width="2"></circle><circle r="186.44" cx="1061.8" cy="105.39" stroke="#3a5283" stroke-opacity="0.25" stroke-width="2"></circle><circle r="78.875" cx="801.07" cy="321.66" stroke="#3a5283" stroke-opacity="0.25" stroke-width="2"></circle><circle r="92.25" cx="342.91" cy="423.43" stroke="#3a5283" stroke-opacity="0.25" stroke-width="2"></circle><circle r="90.655" cx="1196.41" cy="397.68" stroke="#3a5283" stroke-opacity="0.25" stroke-width="2"></circle><circle r="79.295" cx="191.02" cy="178.59" stroke="#3a5283" stroke-opacity="0.25" stroke-width="2"></circle><circle r="83.455" cx="283.23" cy="300.17" stroke="#3a5283" stroke-opacity="0.25" stroke-width="2"></circle><circle r="76.035" cx="1214.89" cy="549.6" stroke="#3a5283" stroke-opacity="0.25" stroke-width="2"></circle><circle r="72.99" cx="929.99" cy="312.63" stroke="#3a5283" stroke-opacity="0.25" stroke-width="2"></circle><circle r="99.69" cx="1341.77" cy="179.72" stroke="#3a5283" stroke-opacity="0.25" stroke-width="2"></circle><circle r="144.345" cx="901.2" cy="531.28" stroke="#3a5283" stroke-opacity="0.25" stroke-width="2"></circle><circle r="124.775" cx="1118.65" cy="378.23" stroke="#3a5283" stroke-opacity="0.25" stroke-width="2"></circle><circle r="95.23" cx="1003.83" cy="475.7" stroke="#3a5283" stroke-opacity="0.25" stroke-width="2"></circle><circle r="114.845" cx="1205.45" cy="62.75" stroke="#3a5283" stroke-opacity="0.25" stroke-width="2"></circle><circle r="179.655" cx="242.95" cy="487.34" stroke="#3a5283" stroke-opacity="0.25" stroke-width="2"></circle><circle r="127.165" cx="718.45" cy="482.91" stroke="#3a5283" stroke-opacity="0.25" stroke-width="2"></circle><circle r="64.485" cx="600.83" cy="192" stroke="#3a5283" stroke-opacity="0.25" stroke-width="2"></circle><circle r="50.13" cx="698.73" cy="23.81" stroke="#3a5283" stroke-opacity="0.25" stroke-width="2"></circle><circle r="69.86" cx="517.07" cy="178.82" stroke="#3a5283" stroke-opacity="0.25" stroke-width="2"></circle></g><defs><clipPath id="SvgjsClipPath1007"><rect width="1440" height="560" x="0" y="0"></rect></clipPath></defs></svg>